<svg width="1920" height="1080" xmlns="http://www.w3.org/2000/svg">
  <defs>
    <linearGradient id="goldGradient" x1="0%" y1="0%" x2="100%" y2="100%">
      <stop offset="0%" style="stop-color:#d4af37;stop-opacity:0.1" />
      <stop offset="50%" style="stop-color:#b8860b;stop-opacity:0.05" />
      <stop offset="100%" style="stop-color:#daa520;stop-opacity:0.1" />
    </linearGradient>
    <radialGradient id="spotlight" cx="50%" cy="30%" r="60%">
      <stop offset="0%" style="stop-color:#ffffff;stop-opacity:0.3" />
      <stop offset="100%" style="stop-color:#ffffff;stop-opacity:0" />
    </radialGradient>
  </defs>
  
  <!-- Background -->
  <rect width="100%" height="100%" fill="url(#goldGradient)"/>
  
  <!-- Spotlight effect -->
  <circle cx="960" cy="324" r="648" fill="url(#spotlight)"/>
  
  <!-- Elegant pattern overlay -->
  <g opacity="0.1">
    <circle cx="200" cy="200" r="3" fill="#d4af37"/>
    <circle cx="400" cy="150" r="2" fill="#b8860b"/>
    <circle cx="600" cy="300" r="4" fill="#daa520"/>
    <circle cx="800" cy="100" r="3" fill="#d4af37"/>
    <circle cx="1000" cy="250" r="2" fill="#b8860b"/>
    <circle cx="1200" cy="180" r="3" fill="#daa520"/>
    <circle cx="1400" cy="320" r="2" fill="#d4af37"/>
    <circle cx="1600" cy="120" r="4" fill="#b8860b"/>
    <circle cx="1800" cy="280" r="3" fill="#daa520"/>
    
    <circle cx="300" cy="800" r="2" fill="#d4af37"/>
    <circle cx="500" cy="750" r="3" fill="#b8860b"/>
    <circle cx="700" cy="900" r="2" fill="#daa520"/>
    <circle cx="900" cy="700" r="4" fill="#d4af37"/>
    <circle cx="1100" cy="850" r="3" fill="#b8860b"/>
    <circle cx="1300" cy="780" r="2" fill="#daa520"/>
    <circle cx="1500" cy="920" r="3" fill="#d4af37"/>
    <circle cx="1700" cy="720" r="2" fill="#b8860b"/>
  </g>
  
  <!-- Subtle crown silhouette -->
  <g opacity="0.05" transform="translate(960, 200)">
    <path d="M-60,0 L-40,-20 L-20,-10 L0,-30 L20,-10 L40,-20 L60,0 L50,10 L-50,10 Z" fill="#d4af37"/>
    <circle cx="-40" cy="-15" r="3" fill="#b8860b"/>
    <circle cx="0" cy="-25" r="4" fill="#daa520"/>
    <circle cx="40" cy="-15" r="3" fill="#b8860b"/>
  </g>
</svg>
